<mxfile host="app.diagrams.net" modified="2023-09-14T22:45:46.543Z" agent="Mozilla/5.0 (Windows NT 10.0; Win64; x64; rv:109.0) Gecko/20100101 Firefox/117.0" etag="rWyp_YNvU_xmLdc1KF8m" version="21.6.6" type="github">
  <diagram name="Page-1" id="qzcIX9TbY_33AAOr_Iov">
    <mxGraphModel dx="875" dy="465" grid="1" gridSize="10" guides="1" tooltips="1" connect="1" arrows="1" fold="1" page="1" pageScale="1" pageWidth="850" pageHeight="1100" math="0" shadow="0">
      <root>
        <mxCell id="0" />
        <mxCell id="1" parent="0" />
        <mxCell id="8u9LmbJdxK0uUFl3wjGJ-1" value="Role" style="swimlane;childLayout=stackLayout;horizontal=1;startSize=50;horizontalStack=0;rounded=1;fontSize=14;fontStyle=0;strokeWidth=2;resizeParent=0;resizeLast=1;shadow=0;dashed=0;align=center;arcSize=4;whiteSpace=wrap;html=1;" vertex="1" parent="1">
          <mxGeometry x="520" y="420" width="160" height="120" as="geometry" />
        </mxCell>
        <mxCell id="8u9LmbJdxK0uUFl3wjGJ-2" value="&lt;div&gt;name&lt;/div&gt;&lt;div&gt;permissions&lt;br&gt;&lt;/div&gt;" style="align=left;strokeColor=none;fillColor=none;spacingLeft=4;fontSize=12;verticalAlign=top;resizable=0;rotatable=0;part=1;html=1;" vertex="1" parent="8u9LmbJdxK0uUFl3wjGJ-1">
          <mxGeometry y="50" width="160" height="70" as="geometry" />
        </mxCell>
        <mxCell id="8u9LmbJdxK0uUFl3wjGJ-3" value="User" style="swimlane;childLayout=stackLayout;horizontal=1;startSize=50;horizontalStack=0;rounded=1;fontSize=14;fontStyle=0;strokeWidth=2;resizeParent=0;resizeLast=1;shadow=0;dashed=0;align=center;arcSize=4;whiteSpace=wrap;html=1;" vertex="1" parent="1">
          <mxGeometry x="180" y="420" width="160" height="120" as="geometry" />
        </mxCell>
        <mxCell id="8u9LmbJdxK0uUFl3wjGJ-4" value="&lt;div&gt;firstName&lt;/div&gt;&lt;div&gt;lastName&lt;/div&gt;&lt;div&gt;email&lt;/div&gt;&lt;div&gt;password&lt;br&gt;&lt;/div&gt;" style="align=left;strokeColor=none;fillColor=none;spacingLeft=4;fontSize=12;verticalAlign=top;resizable=0;rotatable=0;part=1;html=1;" vertex="1" parent="8u9LmbJdxK0uUFl3wjGJ-3">
          <mxGeometry y="50" width="160" height="70" as="geometry" />
        </mxCell>
        <mxCell id="8u9LmbJdxK0uUFl3wjGJ-5" value="" style="edgeStyle=entityRelationEdgeStyle;fontSize=12;html=1;endArrow=ERmandOne;startArrow=ERmandOne;rounded=0;entryX=0;entryY=0;entryDx=0;entryDy=0;" edge="1" parent="1" source="8u9LmbJdxK0uUFl3wjGJ-3" target="8u9LmbJdxK0uUFl3wjGJ-2">
          <mxGeometry width="100" height="100" relative="1" as="geometry">
            <mxPoint x="350" y="500" as="sourcePoint" />
            <mxPoint x="490" y="470" as="targetPoint" />
          </mxGeometry>
        </mxCell>
        <mxCell id="8u9LmbJdxK0uUFl3wjGJ-6" value="has" style="edgeLabel;html=1;align=center;verticalAlign=middle;resizable=0;points=[];" vertex="1" connectable="0" parent="8u9LmbJdxK0uUFl3wjGJ-5">
          <mxGeometry x="0.2771" y="-4" relative="1" as="geometry">
            <mxPoint as="offset" />
          </mxGeometry>
        </mxCell>
      </root>
    </mxGraphModel>
  </diagram>
</mxfile>
